<?xml version="1.0" encoding="UTF-8"?>
<svg id="Layer_2" data-name="Layer 2" xmlns="http://www.w3.org/2000/svg" viewBox="0 0 7909.88 477.32">
  <defs>
    <style>
      .cls-1 {
        fill: #fd5d23;
      }
    </style>
  </defs>
  <g id="Layer_1-2" data-name="Layer 1">
    <path class="cls-1" d="M814.24,101.28h96.63c3.15,0,5.26,2.1,5.26,5.25v363.97c0,3.15-2.1,5.25-5.26,5.25h-96.63c-3.15,0-5.25-2.1-5.25-5.25v-119.75c0-3.15-2.1-5.25-5.26-5.25h-128.15c-3.15,0-5.25,2.09-5.25,5.25v119.75c0,3.15-2.1,5.25-5.25,5.25h-96.11c-3.15,0-5.26-2.1-5.26-5.25V106.53c0-3.15,2.1-5.25,5.26-5.25h96.11c3.15,0,5.25,2.1,5.25,5.25v139.71c0,3.15,2.1,5.25,5.25,5.25h128.15c3.15,0,5.26-2.1,5.26-5.25V106.53c0-3.15,2.09-5.25,5.25-5.25ZM1286.4,106.53v83.51c0,3.15-2.1,5.25-5.25,5.25h-88.76c-3.15,0-5.26,2.1-5.26,5.26v269.95c0,3.15-2.1,5.25-5.25,5.25h-96.64c-3.15,0-5.25-2.1-5.25-5.25V200.54c0-3.15-2.1-5.26-5.25-5.26h-89.29c-3.15,0-5.25-2.09-5.25-5.25v-83.51c0-3.15,2.1-5.25,5.25-5.25h295.69c3.15,0,5.25,2.1,5.25,5.25ZM1440.82,101.28h42.54c2.63,0,5.26,1.05,6.31,3.68l171.21,364.49c1.58,3.68,0,6.3-3.68,6.3h-91.9c-2.63,0-5.26-1.05-6.31-3.68l-19.95-39.39c-1.05-2.62-3.15-3.68-5.78-3.68h-142.85c-2.62,0-5.25,1.05-6.3,3.68l-19.96,39.39c-1.05,2.62-3.15,3.68-5.78,3.68h-91.38c-3.68,0-5.25-2.62-3.68-6.3l171.22-364.49c1.05-2.62,3.68-3.68,6.3-3.68ZM1434.52,334.99h54.62c3.68,0,5.26-2.62,3.68-6.3l-26.78-57.25c-1.57-3.68-5.78-3.68-7.35,0l-27.83,57.25c-1.58,3.68,0,6.3,3.68,6.3ZM2045.34,101.28h50.94c3.15,0,5.25,2.1,5.25,5.25v363.97c0,3.15-2.09,5.25-5.25,5.25h-96.64c-3.15,0-5.25-2.1-5.25-5.25v-112.39c0-4.73-3.68-6.3-6.3-2.62l-82.46,110.29c-2.1,3.15-5.25,3.15-7.35,0l-82.46-109.77c-2.62-3.68-6.3-2.62-6.3,2.1v112.39c0,3.15-2.1,5.25-5.25,5.25h-96.11c-3.15,0-5.26-2.1-5.26-5.25V106.53c0-3.15,2.1-5.25,5.26-5.25h50.94c2.62,0,5.25.52,6.83,3.15l132.35,195.9c2.1,3.15,4.73,3.15,7.35,0l132.88-195.9c1.57-2.63,4.2-3.15,6.83-3.15ZM2321.07,101.28h42.55c2.62,0,5.25,1.05,6.3,3.68l171.22,364.49c1.57,3.68,0,6.3-3.68,6.3h-91.91c-2.62,0-5.25-1.05-6.3-3.68l-19.96-39.39c-1.05-2.62-3.15-3.68-5.78-3.68h-142.85c-2.62,0-5.25,1.05-6.3,3.68l-19.95,39.39c-1.05,2.62-3.15,3.68-5.78,3.68h-91.38c-3.68,0-5.26-2.62-3.68-6.3l171.21-364.49c1.05-2.62,3.68-3.68,6.3-3.68ZM2314.77,334.99h54.62c3.68,0,5.25-2.62,3.68-6.3l-26.79-57.25c-1.57-3.68-5.77-3.68-7.35,0l-27.83,57.25c-1.57,3.68,0,6.3,3.68,6.3ZM3184.52,268.82v19.43c0,105.03-68.81,189.07-177.52,189.07s-189.6-84.55-189.6-189.07,77.73-188.54,182.24-188.54c89.8,0,153.88,54.09,173.83,121.84,1.05,3.68-.52,5.78-2.62,5.78l-88.76,11.03c-3.15.53-7.35-.52-9.45-4.2-13.65-23.64-35.71-40.44-66.17-40.44-50.42,0-82.45,40.96-82.45,94.54s33.08,95.06,89.8,95.06c44.12,0,63.55-27.31,63.55-40.44,0-3.15-1.57-5.25-4.73-5.25h-69.32c-3.15,0-5.26-2.1-5.26-5.25v-63.55c0-3.15,2.1-5.26,5.26-5.26h175.93c3.15,0,5.26,2.1,5.26,5.26ZM3483.9,386.99v83.51c0,3.15-2.1,5.25-5.26,5.25h-239.48c-3.15,0-5.26-2.1-5.26-5.25V106.53c0-3.15,2.1-5.25,5.26-5.25h234.23c3.15,0,5.25,2.1,5.25,5.25v83.51c0,3.15-2.09,5.25-5.25,5.25h-127.62c-3.15,0-5.26,2.1-5.26,5.26v37.81c0,3.15,2.1,5.26,5.26,5.26h92.43c3.15,0,5.25,2.09,5.25,5.25v83.51c0,3.15-2.1,5.25-5.25,5.25h-92.43c-3.15,0-5.26,2.1-5.26,5.25v33.61c0,3.15,2.1,5.26,5.26,5.26h132.87c3.15,0,5.26,2.09,5.26,5.25ZM3876.76,101.28h50.94c3.15,0,5.26,2.1,5.26,5.25v363.97c0,3.15-2.1,5.25-5.26,5.25h-96.63c-3.15,0-5.25-2.1-5.25-5.25v-112.39c0-4.73-3.68-6.3-6.31-2.62l-82.45,110.29c-2.1,3.15-5.26,3.15-7.35,0l-82.46-109.77c-2.62-3.68-6.3-2.62-6.3,2.1v112.39c0,3.15-2.1,5.25-5.26,5.25h-96.11c-3.15,0-5.25-2.1-5.25-5.25V106.53c0-3.15,2.1-5.25,5.25-5.25h50.95c2.62,0,5.25.52,6.82,3.15l132.35,195.9c2.09,3.15,4.72,3.15,7.35,0l132.87-195.9c1.58-2.63,4.21-3.15,6.83-3.15ZM4092.1,475.74h-96.11c-3.15,0-5.25-2.1-5.25-5.25V106.53c0-3.15,2.1-5.25,5.25-5.25h96.11c3.15,0,5.26,2.1,5.26,5.25v363.97c0,3.15-2.1,5.25-5.26,5.25ZM4377.81,386.99v83.51c0,3.15-2.1,5.25-5.25,5.25h-224.79c-3.15,0-5.25-2.1-5.25-5.25V106.53c0-3.15,2.1-5.25,5.25-5.25h96.11c3.15,0,5.26,2.1,5.26,5.25v269.95c0,3.15,2.09,5.26,5.25,5.26h118.17c3.15,0,5.25,2.09,5.25,5.25ZM4587.91,101.28h42.54c2.63,0,5.26,1.05,6.31,3.68l171.21,364.49c1.58,3.68,0,6.3-3.68,6.3h-91.9c-2.63,0-5.26-1.05-6.31-3.68l-19.95-39.39c-1.05-2.62-3.15-3.68-5.78-3.68h-142.85c-2.62,0-5.25,1.05-6.3,3.68l-19.96,39.39c-1.05,2.62-3.15,3.68-5.78,3.68h-91.38c-3.68,0-5.25-2.62-3.68-6.3l171.22-364.49c1.05-2.62,3.68-3.68,6.3-3.68ZM4581.61,334.99h54.62c3.68,0,5.26-2.62,3.68-6.3l-26.78-57.25c-1.57-3.68-5.78-3.68-7.35,0l-27.83,57.25c-1.58,3.68,0,6.3,3.68,6.3ZM5161.96,475.74h-60.92c-2.62,0-4.73-1.05-6.3-3.15l-140.75-161.23c-2.62-4.2-6.3-2.1-6.3,2.62v156.51c0,3.15-2.1,5.25-5.26,5.25h-96.11c-3.15,0-5.25-2.1-5.25-5.25V106.53c0-3.15,2.1-5.25,5.25-5.25h60.92c2.62,0,4.73,1.05,6.3,3.15l140.23,161.23c3.15,3.68,6.3,2.1,6.3-2.62V106.53c0-3.15,2.1-5.25,5.26-5.25h96.63c3.15,0,5.25,2.1,5.25,5.25v363.97c0,3.15-2.09,5.25-5.25,5.25ZM5563.75,268.82v19.43c0,105.03-68.81,189.07-177.52,189.07s-189.6-84.55-189.6-189.07,77.73-188.54,182.24-188.54c89.8,0,153.88,54.09,173.83,121.84,1.05,3.68-.52,5.78-2.62,5.78l-88.76,11.03c-3.15.53-7.35-.52-9.45-4.2-13.65-23.64-35.71-40.44-66.17-40.44-50.42,0-82.45,40.96-82.45,94.54s33.08,95.06,89.8,95.06c44.12,0,63.55-27.31,63.55-40.44,0-3.15-1.57-5.25-4.73-5.25h-69.32c-3.15,0-5.26-2.1-5.26-5.25v-63.55c0-3.15,2.1-5.26,5.26-5.26h175.93c3.15,0,5.26,2.1,5.26,5.26ZM5836.86,361.78c0-3.68-1.04-7.35,5.78-8.4l89.29-11.03c4.2-.53,7.87-1.05,7.87,3.15,0,31.51,32.04,37.81,50.95,37.81,24.16,0,36.76-5.78,36.76-21,0-23.64-47.79-23.64-103.46-42.55-53.04-18.38-79.83-51.99-79.83-108.71,0-76.68,61.97-111.34,134.97-111.34s136.55,32.56,136.02,112.39c0,2.63-2.62,4.73-5.25,4.73l-89.28,11.56c-3.68.52-5.78-1.05-5.78-5.25.52-22.06-19.96-29.42-38.87-29.42-8.4,0-24.68,1.57-24.68,19.96,0,16.28,23.63,19.95,58.29,28.89,104.51,28.36,124.99,76.68,124.99,126.05,0,69.32-58.29,108.71-142.85,108.71-72.47,0-154.93-24.68-154.93-115.54ZM6423.52,101.28h96.63c3.15,0,5.26,2.1,5.26,5.25v207.98c0,70.37-35.72,162.8-171.22,162.8s-171.74-92.43-171.74-162.8V106.53c0-3.15,2.1-5.25,5.25-5.25h96.11c3.15,0,5.26,2.1,5.26,5.25v207.98c0,48.84,26.78,68.8,65.12,68.8s61.98-19.43,64.07-68.8V106.53c0-3.15,2.1-5.25,5.26-5.25ZM6825.83,472.59l-93.49-113.44c-2.62-3.15-5.25-2.62-7.35,0l-27.31,30.99c-1.04,2.09-2.62,3.68-2.62,6.3v74.05c0,3.15-2.09,5.25-5.25,5.25h-96.11c-3.15,0-5.25-2.1-5.25-5.25V106.53c0-3.15,2.09-5.25,5.25-5.25h96.11c3.15,0,5.25,2.1,5.25,5.25v137.08c0,4.73,3.15,6.3,6.31,2.62l123.41-141.8c1.58-2.1,3.68-3.15,6.31-3.15h112.39c4.21,0,5.78,3.15,3.15,6.3l-149.68,173.84c-2.1,2.1-1.57,5.25,0,7.35l150.2,180.67c2.62,3.15,1.05,6.3-3.15,6.3h-111.34c-2.62,0-4.73-.52-6.83-3.15ZM6969.75,361.78c0-3.68-1.05-7.35,5.78-8.4l89.28-11.03c4.21-.53,7.88-1.05,7.88,3.15,0,31.51,32.04,37.81,50.94,37.81,24.16,0,36.77-5.78,36.77-21,0-23.64-47.79-23.64-103.46-42.55-53.04-18.38-79.83-51.99-79.83-108.71,0-76.68,61.98-111.34,134.98-111.34s136.54,32.56,136.02,112.39c0,2.63-2.62,4.73-5.25,4.73l-89.29,11.56c-3.68.52-5.78-1.05-5.78-5.25.53-22.06-19.95-29.42-38.86-29.42-8.4,0-24.69,1.57-24.69,19.96,0,16.28,23.64,19.95,58.3,28.89,104.51,28.36,124.99,76.68,124.99,126.05,0,69.32-58.29,108.71-142.85,108.71-72.47,0-154.93-24.68-154.93-115.54ZM7564.8,386.99v83.51c0,3.15-2.09,5.25-5.25,5.25h-239.48c-3.15,0-5.26-2.1-5.26-5.25V106.53c0-3.15,2.1-5.25,5.26-5.25h234.23c3.15,0,5.25,2.1,5.25,5.25v83.51c0,3.15-2.1,5.25-5.25,5.25h-127.63c-3.15,0-5.25,2.1-5.25,5.26v37.81c0,3.15,2.1,5.26,5.25,5.26h92.43c3.15,0,5.26,2.09,5.26,5.25v83.51c0,3.15-2.1,5.25-5.26,5.25h-92.43c-3.15,0-5.25,2.1-5.25,5.25v33.61c0,3.15,2.1,5.26,5.25,5.26h132.88c3.15,0,5.25,2.09,5.25,5.25ZM7612.09,361.78c0-3.68-1.05-7.35,5.78-8.4l89.28-11.03c4.21-.53,7.88-1.05,7.88,3.15,0,31.51,32.04,37.81,50.94,37.81,24.16,0,36.77-5.78,36.77-21,0-23.64-47.79-23.64-103.46-42.55-53.04-18.38-79.83-51.99-79.83-108.71,0-76.68,61.98-111.34,134.98-111.34s136.54,32.56,136.02,112.39c0,2.63-2.62,4.73-5.25,4.73l-89.29,11.56c-3.68.52-5.78-1.05-5.78-5.25.53-22.06-19.95-29.42-38.86-29.42-8.4,0-24.69,1.57-24.69,19.96,0,16.28,23.64,19.95,58.3,28.89,104.51,28.36,124.99,76.68,124.99,126.05,0,69.32-58.29,108.71-142.85,108.71-72.47,0-154.93-24.68-154.93-115.54Z"/>
    <g>
      <path class="cls-1" d="M157.83,288.11l-.19-2.95-.82.18c-.52,1.46-.88,3.61.43,4.74.16-.18.37-.33.43-.58.03-.11.16-1.33.16-1.4Z"/>
      <path class="cls-1" d="M166.11,286.74c.1-.66.2-4.27-.39-4.36-1.36.35-1.08,4.28-.55,4.89.41.46.86-.05.93-.53Z"/>
      <path class="cls-1" d="M182.89,334.97c17.53-2.75,13.97-33.89-5.22-30.44-16.86,3.03-13.36,33.35,5.22,30.44ZM174.96,316.14c3.8-.48,5.85,4.95,2.19,6.9-5.21,2.78-7.83-6.19-2.19-6.9Z"/>
      <path class="cls-1" d="M163.15,288.27c.16-.63.46-5.1-.23-5.09-1.32.43-1.14,4.36-.5,4.93.25.22.42.21.73.15Z"/>
      <path class="cls-1" d="M160.43,284.16c-1.19-.88-1.9,4.65-.38,5.13.78-.06.67-4.38.38-5.13Z"/>
      <path class="cls-1" d="M171.86,284.3c.04-.61.13-2.54.04-3.05-.07-.44-.22-.63-.58-.87-1.37,1.35-1.15,3.73-.35,5.32l.6-.12c.17-.14.27-1,.29-1.28Z"/>
      <path class="cls-1" d="M183.47,281.82c.21-.66.35-4.62,0-4.9-1.23-.95-1.97,4.79-.36,5.33.37.13.31-.25.37-.43Z"/>
      <path class="cls-1" d="M189.46,274.89c-1.81-.02-1.28,5-.66,5.35.22,0,.42.02.61-.13.42-.34.45-4.99.05-5.22Z"/>
      <path class="cls-1" d="M177.66,282.28c.03-.52.07-3.37-.21-3.53-1.84-.12-1.38,4.93-.57,5.14.75.19.76-1.06.78-1.6Z"/>
      <path class="cls-1" d="M180.56,282.52c.18-.56.26-4.58-.11-4.79-1.48.14-1.37,3.13-1.1,4.21.18.72.85,1.71,1.21.58Z"/>
      <path class="cls-1" d="M174.58,284.86c.18-.82.59-5.15-.25-5.29-1.17-.2-1.32,4.74-.37,5.24.21.11.4.09.62.05Z"/>
      <path class="cls-1" d="M186.52,280.65c.21-.57.29-4.53-.06-4.74-1.99-.06-1.29,5.4-.36,5.33.19-.17.33-.34.42-.59Z"/>
      <path class="cls-1" d="M134.38,292.21c-1.16.32-.89,4.45-.5,4.73l.6-.04c.04-.72.32-4.42-.1-4.69Z"/>
      <path class="cls-1" d="M154.96,286.35l-.61-.14c-.89.58-.68,4.54.09,4.67.9.16.71-3.94.52-4.53Z"/>
      <path class="cls-1" d="M136.82,291.95c-.07-.26-.23-.57-.54-.48-.89.54-.57,4.5-.19,4.7l.6-.03c.15-.14.23-3.81.13-4.2Z"/>
      <path class="cls-1" d="M139.38,294c.02-.46.04-2.99-.19-3.12-.75-.42-1.03,1.57-1.06,2.02-.1,2.06,1.09,4.25,1.25,1.1Z"/>
      <path class="cls-1" d="M110.37,301.54l-33.25,3.56-2.56,5.45c8.33-.89,16.66-1.81,24.98-2.77,5.51-.63,11.02-1.31,16.53-1.91l-5.07-4.17-.63-.16Z"/>
      <path class="cls-1" d="M105.91,243.8l-27.41,58.34,30.9-4.2c-.05-.3-.22-.53-.21-.85.1-3.74,7.37-7.88,10.27-9.62l-13.56-43.67Z"/>
      <path class="cls-1" d="M505.75,467.63L288.29,4.67c-1.33-3.34-4.67-4.67-8.01-4.67h-54.03c-3.34,0-6.67,1.33-8,4.67l-105.02,223.56c5.99,10.27,11.94,20.57,18.31,30.6,3.26,5.13,7.84,13.49,13.8,15.54,2.17.75,3.15.67,5.21-.4l-.87-4.21,1.97,3.55.37.15,29.08-10.68c.25-.32-1.62-4.72-1.75-5.55-.12-.77.32-.89.8-.24,1.01,1.35,1.73,3.4,2.63,4.87l.57.13c23.93-8.42,48-16.45,71.96-24.79,3.92-1.36,7.75-3,11.69-4.33,5.67-1.92,11.45-3.61,17.3-4.88l-2.71-6.97,1.19-.05,3.86,6.42c7.2-1.32,14.21-2.24,21.5-1.12,13.94,2.15,21.84,8.86,31.05,18.83,1.65,1.79,3.16,3.68,4.56,5.67,7.52-3.25,15.48-6.1,22.69-9.99,4.76-2.57,10.34-5.93,7.85-12.31l-11.22-21.21c.83-.1,1.51-.14,2.31.09,1.98.57,6.09,6.13,7.58,7.97,2.27,2.8,8.92,10.84,9.54,13.94l.15,2.24c-.38,2.23-1.77,3.95-3.61,5.18l-33.84,17.71c2.89,7.74-1.97,14.06-6.98,19.37l.02.3c.3,0,.54.15.75.35,9.27,9,8.18,24.64-3.67,30.73-3.51,1.8-8.63,3.56-12.48,4.4-12.43,2.71-27.16-1.63-27.5-16.41,0-.36.43-1.45-.18-1.31l-26.03,7.11c-5.8,4.23-12.61,6.09-19.47,7.87-17.57,4.55-35.48,7.99-53.24,11.75.4,7.1-3.03,14.18-9.33,17.61-3.53,1.92-7.84,3.13-11.67,4.35l-4.27.95c-1.4.01-2.89.3-4.27.28-11.53-.13-21.99-7.34-20.17-19.97l-4.39-5.06c-5.34-1.58-10.64-3.28-15.79-5.39l-16.85,1.51c-1.09.85-1.83,1.91-2.92,2.81-3.8,3.1-8.86,4.12-13.65,3.4-.55-1.79.28-3.52,1.22-4.99-4.46.69-9.02.73-13.53,1.09-.48.04-.91.27-1.39.31-2.47.2-4.93.37-7.4.55L.77,467.63c-2,4.67,0,8,4.67,8h116.07c3.34,0,6-1.33,7.34-4.67l25.35-50.03c1.33-3.33,4.67-4.67,8-4.67h181.45c3.34,0,6,1.33,7.34,4.67l25.35,50.03c1.33,3.34,4.67,4.67,8.01,4.67h116.74c4.67,0,6.67-3.33,4.67-8Z"/>
      <path class="cls-1" d="M149.68,291.7c.08-.59.2-4.15-.37-4.15-.11.15-.34.16-.44.28-.68.77-.81,4,.36,4.62.25-.23.41-.39.45-.75Z"/>
      <path class="cls-1" d="M152.42,287.27c-.08-.2-.27-.37-.5-.3-.92.26-1.12,4.14-.1,4.7.81.14.79-3.89.59-4.4Z"/>
      <path class="cls-1" d="M147.24,291.87l-.22-3.36c-1.72-.14-1.38,4.58-.4,4.72.43.08.63-1.18.62-1.37Z"/>
      <path class="cls-1" d="M142.02,293.24c.05-.88-.14-2.12-.2-3.05-.02-.36-.63-.21-.82.1-.7,1.11-.44,3.2.1,4.34l.61-.13c.07-.06.3-1.09.31-1.26Z"/>
      <path class="cls-1" d="M144.29,293.67c.07-.7.36-4.28-.1-4.56-1.5.21-1.29,4.41-.39,4.71.11.04.53.07.49-.15Z"/>
      <path class="cls-1" d="M168.84,286.26c.2-.65.38-4.61,0-4.9-.37-.02-.58.05-.8.35-.65.87-.74,4.58.44,4.98.37.13.31-.25.37-.43Z"/>
      <path class="cls-1" d="M260.09,257.67c.03-.61-.27-4.57-.53-4.76-2.42-.25-1.51,5.94-.08,5.89.52-.02.59-.75.61-1.13Z"/>
      <path class="cls-1" d="M256.19,258.28c.07-.79-.06-3.55-.53-4.09-.15-.23-.37-.24-.6-.15-.66.26-.81,2.56-.73,3.2.18,1.63,1.64,3.65,1.86,1.04Z"/>
      <path class="cls-1" d="M192.73,278.23c.06-.79.12-2.95,0-3.67-.13-.7-.51-.92-1-.38-.57.63-.57,2.93-.42,3.75.27,1.46,1.28,2.24,1.43.3Z"/>
      <path class="cls-1" d="M252.31,260.73c.23-.22.04-3.62-.06-4.17-.06-.31-.29-1.42-.79-1.27-1.3.38-1.34,5.98.85,5.45Z"/>
      <path class="cls-1" d="M244.68,262.77c.16-.77-.24-3.64-.31-4.68,0-.07-.51-.5-.72-.45-1.28.3-.94,5.86.56,5.62.1-.02.46-.42.48-.49Z"/>
      <path class="cls-1" d="M241.09,264.03l-.32-4.88-1.01-.21c-.67,1.6-.94,4.56.84,5.44l.49-.35Z"/>
      <path class="cls-1" d="M293.7,240.9c-.72.08-1.99.38-2.56.83-.31.25-2.26,2.86-2.42,3.25-.28.67-1.28,4.72-1.3,5.39-.03.92.23,1.31,1.18,1.23,1.17-.09,4.09-.82,4.66-1.88.4-.74,2.19-6.91,2.19-7.68,0-1.35-.66-1.28-1.76-1.15Z"/>
      <path class="cls-1" d="M315.87,236.18c-2.49.36-7.85,1.3-10.1,2.08-.82.28-1.18.89-1.05,1.74.07.41,1.67,4.1,1.91,4.4.73.9,2.17.6,3.2.5,2.68-.27,6.89-.88,9.49-1.46,1.26-.28,3.13-1.23,2.72-2.82-.13-.49-2.48-3.44-2.95-3.87-1.03-.96-1.96-.74-3.24-.55Z"/>
      <path class="cls-1" d="M333.66,303.11c9.34-3.22,11.99-15.47,7.03-23.42-.52-.83-3.33-4.46-4.26-4.24-.24.06-3.04,2.51-3.64,2.94-5.34,3.83-10.98,5.59-17.17,7.58-1.67,10.19,7.39,20.82,18.04,17.14ZM323.58,284.88c4.63-.78,5.76,6.25,1.63,7.19-5.28,1.21-6.47-6.38-1.63-7.19Z"/>
      <path class="cls-1" d="M295.5,249.01l.66.02c1.56-1.1,6.75-2.29,7.84-3.41.11-.12.35-.57.37-.73.14-.91-1.07-5.06-1.97-5.52-1.13-.58-4.33.65-4.98,1.74-.38.64-2.2,6.02-2.32,6.79-.08.51-.12.81.39,1.1Z"/>
      <path class="cls-1" d="M326.63,234.5c-.62-.34-.82-.27-1.48-.17-.78.12-3.97.87-4.12,1.59-.09.31.06.54.18.81.15.33,2.51,3.22,2.85,3.53.71.64,1.75.92,2.69.88.68-.03,4.48-.86,4.75-1.23.37-.52.12-.93-.2-1.35-.31-.41-4.25-3.82-4.68-4.06Z"/>
      <path class="cls-1" d="M237.26,265.18c.3-.24.05-4.75-.31-5.18-.43-.52-.73-.15-.98.31-.73,1.32-.12,5.96,1.29,4.87Z"/>
      <path class="cls-1" d="M248.67,261.28c.11-1.15-.21-3.21-.29-4.47,0-.03-.25-.48-.36-.5-1.64-.18-1.63,5.72.48,5.49-.06-.2.16-.41.17-.52Z"/>
      <path class="cls-1" d="M209.62,273.56c.1-1.62.06-3.06-.33-4.65-1.93-.56-1.7,5.25.33,4.65Z"/>
      <path class="cls-1" d="M204.4,274.84c.17-.46.27-4.47.09-4.62-.24.05-.59-.04-.78.09-.55.37-.79,4.5.2,5.06.32.05.41-.3.49-.52Z"/>
      <path class="cls-1" d="M213.03,272.71c.21-.2.22-5.02-.68-5.45-1.49-.3-1.62,6.08.68,5.45Z"/>
      <path class="cls-1" d="M199.47,276.08c.09-.58.18-3.77-.07-4.1-.13-.22-.58-.24-.72-.14-.55.41-.72,4.92.22,5.08.39.07.53-.58.57-.84Z"/>
      <path class="cls-1" d="M195.81,278.15c.17-.18.16-4.36.05-4.98l-.5-.31c-1.11.08-1.19,4.41-.48,5.15.21.21.84.24.93.14Z"/>
      <path class="cls-1" d="M233.68,266.33c.27-.55-.04-5.11-.37-5.35-1.02-.74-1.48,2.05-1.46,2.65.03.86.6,3.48,1.82,2.7Z"/>
      <path class="cls-1" d="M216.42,271.38c.11-1.15-.21-3.21-.3-4.47,0-.03-.25-.48-.36-.5-1.64-.18-1.63,5.72.48,5.49-.06-.2.16-.41.17-.52Z"/>
      <path class="cls-1" d="M219.84,270.54c.15-.66-.24-3.71-.31-4.68,0-.13-.24-.55-.54-.48-1.47.33-1.09,4.95-.16,5.44.32.17.93.07,1.01-.28Z"/>
      <path class="cls-1" d="M230.24,266.99c.11-1.15-.21-3.21-.29-4.47,0-.03-.25-.48-.36-.5-1.64-.18-1.63,5.72.48,5.49-.06-.2.16-.41.17-.52Z"/>
      <path class="cls-1" d="M226.37,268.78c.66-.22.27-4.58-.14-5.31l-.6-.13c-1.45.67-.76,5.95.73,5.44Z"/>
      <path class="cls-1" d="M222.78,269.82c1.11.16.4-5.33.11-5.49-1.09-.62-1.46,1.98-1.43,2.66.03.67.56,2.72,1.31,2.83Z"/>
    </g>
  </g>
</svg>