<?xml version="1.0" encoding="UTF-8"?>
<svg id="Layer_1" xmlns="http://www.w3.org/2000/svg" version="1.1" viewBox="0 0 309 309">
  <!-- Generator: Adobe Illustrator 29.0.0, SVG Export Plug-In . SVG Version: 2.1.0 Build 186)  -->
  <defs>
    <style>
      .st0 {
        fill: #fd5d23;
      }
    </style>
  </defs>
  <path class="st0" d="M97.4,184.6v-1.8c-.1,0-.6.1-.6.1-.3.9-.5,2.2.3,2.8,0-.1.2-.2.3-.3,0,0,0-.8,0-.8Z"/>
  <path class="st0" d="M102.3,183.8c0-.4.1-2.6-.2-2.6-.8.2-.6,2.6-.3,2.9.2.3.5,0,.6-.3Z"/>
  <path class="st0" d="M112.4,212.7c10.5-1.6,8.4-20.3-3.1-18.2-10.1,1.8-8,20,3.1,18.2ZM107.6,201.4c2.3-.3,3.5,3,1.3,4.1-3.1,1.7-4.7-3.7-1.3-4.1Z"/>
  <path class="st0" d="M100.5,184.7c0-.4.3-3.1-.1-3-.8.3-.7,2.6-.3,3,.1.1.3.1.4,0Z"/>
  <path class="st0" d="M98.9,182.2c-.7-.5-1.1,2.8-.2,3.1.5,0,.4-2.6.2-3.1Z"/>
  <path class="st0" d="M105.8,182.3c0-.4,0-1.5,0-1.8,0-.3-.1-.4-.3-.5-.8.8-.7,2.2-.2,3.2h.4c.1-.2.2-.7.2-.8Z"/>
  <path class="st0" d="M112.7,180.8c.1-.4.2-2.8,0-2.9-.7-.6-1.2,2.9-.2,3.2.2,0,.2-.1.2-.3Z"/>
  <path class="st0" d="M116.3,176.7c-1.1,0-.8,3-.4,3.2.1,0,.3,0,.4,0,.3-.2.3-3,0-3.1Z"/>
  <path class="st0" d="M109.2,181.1c0-.3,0-2-.1-2.1-1.1,0-.8,3-.3,3.1.5.1.5-.6.5-1Z"/>
  <path class="st0" d="M111,181.3c.1-.3.2-2.7,0-2.9-.9,0-.8,1.9-.7,2.5.1.4.5,1,.7.3Z"/>
  <path class="st0" d="M107.4,182.7c.1-.5.4-3.1-.1-3.2-.7-.1-.8,2.8-.2,3.1.1,0,.2,0,.4,0Z"/>
  <path class="st0" d="M114.5,180.1c.1-.3.2-2.7,0-2.8-1.2,0-.8,3.2-.2,3.2.1-.1.2-.2.2-.4Z"/>
  <path class="st0" d="M83.3,187.1c-.7.2-.5,2.7-.3,2.8h.4c0-.5.2-2.7,0-2.8Z"/>
  <path class="st0" d="M95.6,183.6h-.4c-.5.3-.4,2.6,0,2.7.5,0,.4-2.4.3-2.7Z"/>
  <path class="st0" d="M84.8,186.9c0-.2-.1-.3-.3-.3-.5.3-.3,2.7-.1,2.8h.4c0-.1.1-2.3,0-2.5Z"/>
  <path class="st0" d="M86.3,188.1c0-.3,0-1.8-.1-1.9-.4-.3-.6.9-.6,1.2,0,1.2.7,2.5.7.7Z"/>
  <path class="st0" d="M68.9,192.7l-19.9,2.1-1.5,3.3c5-.5,10-1.1,15-1.7,3.3-.4,6.6-.8,9.9-1.1l-3-2.5h-.4Z"/>
  <path class="st0" d="M66.3,158.1l-16.4,34.9,18.5-2.5c0-.2-.1-.3-.1-.5,0-2.2,4.4-4.7,6.1-5.8l-8.1-26.1Z"/>
  <path class="st0" d="M305.7,292.1L175.5,14.9c-.8-2-2.8-2.8-4.8-2.8h-32.4c-2,0-4,.8-4.8,2.8l-62.9,133.8c3.6,6.1,7.1,12.3,11,18.3,2,3.1,4.7,8.1,8.3,9.3,1.3.4,1.9.4,3.1-.2l-.5-2.5,1.2,2.1h.2c0,0,17.4-6.3,17.4-6.3.1-.2-1-2.8-1-3.3,0-.5.2-.5.5-.1.6.8,1,2,1.6,2.9h.3c14.3-5,28.7-9.8,43.1-14.8,2.3-.8,4.6-1.8,7-2.6,3.4-1.1,6.9-2.2,10.4-2.9l-1.6-4.2h.7s2.3,3.8,2.3,3.8c4.3-.8,8.5-1.3,12.9-.7,8.3,1.3,13.1,5.3,18.6,11.3,1,1.1,1.9,2.2,2.7,3.4,4.5-1.9,9.3-3.7,13.6-6,2.9-1.5,6.2-3.5,4.7-7.4l-6.7-12.7c.5,0,.9,0,1.4,0,1.2.3,3.6,3.7,4.5,4.8,1.4,1.7,5.3,6.5,5.7,8.3v1.3c-.1,1.3-1,2.4-2.1,3.1l-20.3,10.6c1.7,4.6-1.2,8.4-4.2,11.6v.2c.2,0,.3,0,.5.2,5.6,5.4,4.9,14.8-2.2,18.4-2.1,1.1-5.2,2.1-7.5,2.6-7.4,1.6-16.3-1-16.5-9.8,0-.2.3-.9-.1-.8l-15.6,4.3c-3.5,2.5-7.5,3.6-11.7,4.7-10.5,2.7-21.2,4.8-31.9,7,.2,4.3-1.8,8.5-5.6,10.5-2.1,1.1-4.7,1.9-7,2.6l-2.6.6c-.8,0-1.7.2-2.6.2-6.9,0-13.2-4.4-12.1-12l-2.6-3c-3.2-.9-6.4-2-9.5-3.2l-10.1.9c-.7.5-1.1,1.1-1.8,1.7-2.3,1.9-5.3,2.5-8.2,2-.3-1.1.2-2.1.7-3-2.7.4-5.4.4-8.1.7-.3,0-.5.2-.8.2-1.5.1-3,.2-4.4.3L3.3,292.1c-1.2,2.8,0,4.8,2.8,4.8h69.5c2,0,3.6-.8,4.4-2.8l15.2-30c.8-2,2.8-2.8,4.8-2.8h108.6c2,0,3.6.8,4.4,2.8l15.2,30c.8,2,2.8,2.8,4.8,2.8h69.9c2.8,0,4-2,2.8-4.8Z"/>
  <path class="st0" d="M92.5,186.8c0-.4.1-2.5-.2-2.5,0,0-.2,0-.3.2-.4.5-.5,2.4.2,2.8.1-.1.2-.2.3-.4Z"/>
  <path class="st0" d="M94.1,184.1c0-.1-.2-.2-.3-.2-.6.2-.7,2.5,0,2.8.5,0,.5-2.3.4-2.6Z"/>
  <path class="st0" d="M91,186.9v-2c-1.2,0-1,2.7-.4,2.8.3,0,.4-.7.4-.8Z"/>
  <path class="st0" d="M87.9,187.7c0-.5,0-1.3-.1-1.8,0-.2-.4-.1-.5,0-.4.7-.3,1.9,0,2.6h.4c0-.1.2-.7.2-.8Z"/>
  <path class="st0" d="M89.3,187.9c0-.4.2-2.6,0-2.7-.9.1-.8,2.6-.2,2.8,0,0,.3,0,.3,0Z"/>
  <path class="st0" d="M104,183.5c.1-.4.2-2.8,0-2.9-.2,0-.3,0-.5.2-.4.5-.4,2.7.3,3,.2,0,.2-.1.2-.3Z"/>
  <path class="st0" d="M158.6,166.4c0-.4-.2-2.7-.3-2.9-1.4-.2-.9,3.6,0,3.5.3,0,.4-.4.4-.7Z"/>
  <path class="st0" d="M156.3,166.8c0-.5,0-2.1-.3-2.5,0-.1-.2-.1-.4,0-.4.2-.5,1.5-.4,1.9.1,1,1,2.2,1.1.6Z"/>
  <path class="st0" d="M118.3,178.7c0-.5,0-1.8,0-2.2,0-.4-.3-.6-.6-.2-.3.4-.3,1.8-.3,2.2.2.9.8,1.3.9.2Z"/>
  <path class="st0" d="M153.9,168.2c.1-.1,0-2.2,0-2.5,0-.2-.2-.8-.5-.8-.8.2-.8,3.6.5,3.3Z"/>
  <path class="st0" d="M149.4,169.4c0-.5-.1-2.2-.2-2.8,0,0-.3-.3-.4-.3-.8.2-.6,3.5.3,3.4,0,0,.3-.3.3-.3Z"/>
  <path class="st0" d="M147.2,170.2l-.2-2.9h-.6c-.4.8-.6,2.6.5,3.1l.3-.2Z"/>
  <path class="st0" d="M178.7,156.3c-.4,0-1.2.2-1.5.5-.2.1-1.4,1.7-1.5,1.9-.2.4-.8,2.8-.8,3.2,0,.5.1.8.7.7.7,0,2.4-.5,2.8-1.1.2-.4,1.3-4.1,1.3-4.6,0-.8-.4-.8-1.1-.7Z"/>
  <path class="st0" d="M192,153.5c-1.5.2-4.7.8-6,1.2-.5.2-.7.5-.6,1,0,.2,1,2.5,1.1,2.6.4.5,1.3.4,1.9.3,1.6-.2,4.1-.5,5.7-.9.8-.2,1.9-.7,1.6-1.7,0-.3-1.5-2.1-1.8-2.3-.6-.6-1.2-.4-1.9-.3Z"/>
  <path class="st0" d="M202.6,193.6c5.6-1.9,7.2-9.3,4.2-14-.3-.5-2-2.7-2.6-2.5-.1,0-1.8,1.5-2.2,1.8-3.2,2.3-6.6,3.3-10.3,4.5-1,6.1,4.4,12.5,10.8,10.3ZM196.6,182.7c2.8-.5,3.4,3.7,1,4.3-3.2.7-3.9-3.8-1-4.3Z"/>
  <path class="st0" d="M179.8,161.2h.4c.9-.6,4-1.4,4.7-2,0,0,.2-.3.2-.4,0-.5-.6-3-1.2-3.3-.7-.3-2.6.4-3,1-.2.4-1.3,3.6-1.4,4.1,0,.3,0,.5.2.7Z"/>
  <path class="st0" d="M198.4,152.5c-.4-.2-.5-.2-.9,0-.5,0-2.4.5-2.5,1,0,.2,0,.3.1.5,0,.2,1.5,1.9,1.7,2.1.4.4,1,.6,1.6.5.4,0,2.7-.5,2.8-.7.2-.3,0-.6-.1-.8-.2-.2-2.5-2.3-2.8-2.4Z"/>
  <path class="st0" d="M144.9,170.9c.2-.1,0-2.8-.2-3.1-.3-.3-.4,0-.6.2-.4.8,0,3.6.8,2.9Z"/>
  <path class="st0" d="M151.8,168.5c0-.7-.1-1.9-.2-2.7,0,0-.1-.3-.2-.3-1-.1-1,3.4.3,3.3,0-.1,0-.2.1-.3Z"/>
  <path class="st0" d="M128.4,175.9c0-1,0-1.8-.2-2.8-1.2-.3-1,3.1.2,2.8Z"/>
  <path class="st0" d="M125.2,176.7c.1-.3.2-2.7,0-2.8-.1,0-.4,0-.5,0-.3.2-.5,2.7.1,3,.2,0,.2-.2.3-.3Z"/>
  <path class="st0" d="M130.4,175.4c.1-.1.1-3-.4-3.3-.9-.2-1,3.6.4,3.3Z"/>
  <path class="st0" d="M122.3,177.4c0-.3.1-2.3,0-2.5,0-.1-.3-.1-.4,0-.3.2-.4,2.9.1,3,.2,0,.3-.3.3-.5Z"/>
  <path class="st0" d="M120.1,178.6c.1-.1,0-2.6,0-3l-.3-.2c-.7,0-.7,2.6-.3,3.1.1.1.5.1.6,0Z"/>
  <path class="st0" d="M142.8,171.6c.2-.3,0-3.1-.2-3.2-.6-.4-.9,1.2-.9,1.6,0,.5.4,2.1,1.1,1.6Z"/>
  <path class="st0" d="M132.4,174.6c0-.7-.1-1.9-.2-2.7,0,0-.1-.3-.2-.3-1-.1-1,3.4.3,3.3,0-.1,0-.2.1-.3Z"/>
  <path class="st0" d="M134.5,174.1c0-.4-.1-2.2-.2-2.8,0,0-.1-.3-.3-.3-.9.2-.7,3,0,3.3.2.1.6,0,.6-.2Z"/>
  <path class="st0" d="M140.7,172c0-.7-.1-1.9-.2-2.7,0,0-.1-.3-.2-.3-1-.1-1,3.4.3,3.3,0-.1,0-.2.1-.3Z"/>
  <path class="st0" d="M138.4,173c.4-.1.2-2.7,0-3.2h-.4c-.9.3-.5,3.5.4,3.2Z"/>
  <path class="st0" d="M136.2,173.7c.7,0,.2-3.2,0-3.3-.7-.4-.9,1.2-.9,1.6,0,.4.3,1.6.8,1.7Z"/>
</svg>